<?xml version="1.0" encoding="UTF-8"?>

<svg version="1.2" baseProfile="tiny" width="279.4mm" height="215.9mm" viewBox="0 0 27940 21590" preserveAspectRatio="xMidYMid" fill-rule="evenodd" stroke-width="28.222" stroke-linejoin="round" xmlns="http://www.w3.org/2000/svg" xmlns:ooo="http://xml.openoffice.org/svg/export" xmlns:xlink="http://www.w3.org/1999/xlink" xml:space="preserve">
 <defs class="ClipPathGroup">
  <clipPath id="presentation_clip_path" clipPathUnits="userSpaceOnUse">
   <rect x="0" y="0" width="27940" height="21590"/>
  </clipPath>
 </defs>
 <defs class="TextShapeIndex">
  <g ooo:slide="id1" ooo:id-list="id3 id4 id5 id6 id7 id8 id9 id10 id11 id12 id13 id14 id15 id16 id17 id18 id19 id20 id21 id22 id23 id24 id25 id26 id27 id28 id29 id30 id31 id32 id33 id34 id35 id36 id37 id38 id39 id40 id41 id42"/>
 </defs>
 <defs class="EmbeddedBulletChars">
  <g id="bullet-char-template(57356)" transform="scale(0.00048828125,-0.00048828125)">
   <path d="M 580,1141 L 1163,571 580,0 -4,571 580,1141 Z"/>
  </g>
  <g id="bullet-char-template(57354)" transform="scale(0.00048828125,-0.00048828125)">
   <path d="M 8,1128 L 1137,1128 1137,0 8,0 8,1128 Z"/>
  </g>
  <g id="bullet-char-template(10146)" transform="scale(0.00048828125,-0.00048828125)">
   <path d="M 174,0 L 602,739 174,1481 1456,739 174,0 Z M 1358,739 L 309,1346 659,739 1358,739 Z"/>
  </g>
  <g id="bullet-char-template(10132)" transform="scale(0.00048828125,-0.00048828125)">
   <path d="M 2015,739 L 1276,0 717,0 1260,543 174,543 174,936 1260,936 717,1481 1274,1481 2015,739 Z"/>
  </g>
  <g id="bullet-char-template(10007)" transform="scale(0.00048828125,-0.00048828125)">
   <path d="M 0,-2 C -7,14 -16,27 -25,37 L 356,567 C 262,823 215,952 215,954 215,979 228,992 255,992 264,992 276,990 289,987 310,991 331,999 354,1012 L 381,999 492,748 772,1049 836,1024 860,1049 C 881,1039 901,1025 922,1006 886,937 835,863 770,784 769,783 710,716 594,584 L 774,223 C 774,196 753,168 711,139 L 727,119 C 717,90 699,76 672,76 641,76 570,178 457,381 L 164,-76 C 142,-110 111,-127 72,-127 30,-127 9,-110 8,-76 1,-67 -2,-52 -2,-32 -2,-23 -1,-13 0,-2 Z"/>
  </g>
  <g id="bullet-char-template(10004)" transform="scale(0.00048828125,-0.00048828125)">
   <path d="M 285,-33 C 182,-33 111,30 74,156 52,228 41,333 41,471 41,549 55,616 82,672 116,743 169,778 240,778 293,778 328,747 346,684 L 369,508 C 377,444 397,411 428,410 L 1163,1116 C 1174,1127 1196,1133 1229,1133 1271,1133 1292,1118 1292,1087 L 1292,965 C 1292,929 1282,901 1262,881 L 442,47 C 390,-6 338,-33 285,-33 Z"/>
  </g>
  <g id="bullet-char-template(9679)" transform="scale(0.00048828125,-0.00048828125)">
   <path d="M 813,0 C 632,0 489,54 383,161 276,268 223,411 223,592 223,773 276,916 383,1023 489,1130 632,1184 813,1184 992,1184 1136,1130 1245,1023 1353,916 1407,772 1407,592 1407,412 1353,268 1245,161 1136,54 992,0 813,0 Z"/>
  </g>
  <g id="bullet-char-template(8226)" transform="scale(0.00048828125,-0.00048828125)">
   <path d="M 346,457 C 273,457 209,483 155,535 101,586 74,649 74,723 74,796 101,859 155,911 209,963 273,989 346,989 419,989 480,963 531,910 582,859 608,796 608,723 608,648 583,586 532,535 482,483 420,457 346,457 Z"/>
  </g>
  <g id="bullet-char-template(8211)" transform="scale(0.00048828125,-0.00048828125)">
   <path d="M -4,459 L 1135,459 1135,606 -4,606 -4,459 Z"/>
  </g>
 </defs>
 <defs class="TextEmbeddedBitmaps"/>
 <g>
  <g id="id2" class="Master_Slide">
   <g id="bg-id2" class="Background"/>
   <g id="bo-id2" class="BackgroundObjects"/>
  </g>
 </g>
 <g class="SlideGroup">
  <g>
   <g id="id1" class="Slide" clip-path="url(#presentation_clip_path)">
    <g class="Page">
     <g class="com.sun.star.drawing.CustomShape">
      <g id="id3">
       <path fill="rgb(238,238,238)" stroke="none" d="M 14192,1044 C 19722,1044 23946,5267 23946,10797 23946,16327 19722,20551 14192,20551 8662,20551 4439,16327 4439,10797 4439,5267 8662,1044 14192,1044 Z M 4439,1044 L 4439,1044 Z M 23947,20552 L 23947,20552 Z"/>
       <path fill="none" stroke="rgb(17,17,17)" stroke-width="152" stroke-linejoin="round" d="M 14192,1044 C 19722,1044 23946,5267 23946,10797 23946,16327 19722,20551 14192,20551 8662,20551 4439,16327 4439,10797 4439,5267 8662,1044 14192,1044 Z"/>
      </g>
     </g>
     <g class="com.sun.star.drawing.CustomShape">
      <g id="id4">
       <path fill="rgb(0,204,255)" stroke="none" d="M 12625,4100 C 12996,4100 13281,4384 13281,4756 13281,5128 12996,5412 12625,5412 12254,5412 11970,5128 11970,4756 11970,4384 12254,4100 12625,4100 Z M 11970,4100 L 11970,4100 Z M 13282,5413 L 13282,5413 Z"/>
       <path fill="none" stroke="rgb(17,17,17)" stroke-width="51" stroke-linejoin="round" d="M 12625,4100 C 12996,4100 13281,4384 13281,4756 13281,5128 12996,5412 12625,5412 12254,5412 11970,5128 11970,4756 11970,4384 12254,4100 12625,4100 Z"/>
      </g>
     </g>
     <g class="com.sun.star.drawing.CustomShape">
      <g id="id5">
       <path fill="rgb(0,204,255)" stroke="none" d="M 19079,11716 C 19450,11716 19735,12000 19735,12371 19735,12742 19450,13027 19079,13027 18708,13027 18424,12742 18424,12371 18424,12000 18708,11716 19079,11716 Z M 18424,11716 L 18424,11716 Z M 19736,13028 L 19736,13028 Z"/>
       <path fill="none" stroke="rgb(17,17,17)" stroke-width="51" stroke-linejoin="round" d="M 19079,11716 C 19450,11716 19735,12000 19735,12371 19735,12742 19450,13027 19079,13027 18708,13027 18424,12742 18424,12371 18424,12000 18708,11716 19079,11716 Z"/>
      </g>
     </g>
     <g class="com.sun.star.drawing.CustomShape">
      <g id="id6">
       <path fill="rgb(0,204,255)" stroke="none" d="M 11596,17268 C 11968,17268 12252,17552 12252,17924 12252,18296 11968,18580 11596,18580 11224,18580 10940,18296 10940,17924 10940,17552 11224,17268 11596,17268 Z M 10940,17268 L 10940,17268 Z M 12253,18581 L 12253,18581 Z"/>
       <path fill="none" stroke="rgb(17,17,17)" stroke-width="51" stroke-linejoin="round" d="M 11596,17268 C 11968,17268 12252,17552 12252,17924 12252,18296 11968,18580 11596,18580 11224,18580 10940,18296 10940,17924 10940,17552 11224,17268 11596,17268 Z"/>
      </g>
     </g>
     <g class="com.sun.star.drawing.CustomShape">
      <g id="id7">
       <path fill="rgb(0,204,255)" stroke="none" d="M 13662,11332 C 14034,11332 14318,11616 14318,11987 14318,12358 14034,12643 13662,12643 13290,12643 13006,12358 13006,11987 13006,11616 13290,11332 13662,11332 Z M 13006,11332 L 13006,11332 Z M 14319,12644 L 14319,12644 Z"/>
       <path fill="none" stroke="rgb(17,17,17)" stroke-width="51" stroke-linejoin="round" d="M 13662,11332 C 14034,11332 14318,11616 14318,11987 14318,12358 14034,12643 13662,12643 13290,12643 13006,12358 13006,11987 13006,11616 13290,11332 13662,11332 Z"/>
      </g>
     </g>
     <g class="com.sun.star.drawing.CustomShape">
      <g id="id8">
       <path fill="rgb(0,0,0)" stroke="none" d="M 14158,9871 C 14322,9871 14448,9996 14448,10160 14448,10324 14322,10450 14158,10450 13994,10450 13869,10324 13869,10160 13869,9996 13994,9871 14158,9871 Z M 13869,9871 L 13869,9871 Z M 14449,10451 L 14449,10451 Z"/>
      </g>
     </g>
     <g class="com.sun.star.drawing.CustomShape">
      <g id="id9">
       <path fill="rgb(0,0,0)" stroke="none" d="M 14032,6129 C 14196,6129 14321,6254 14321,6418 14321,6582 14196,6708 14032,6708 13868,6708 13743,6582 13743,6418 13743,6254 13868,6129 14032,6129 Z M 13743,6129 L 13743,6129 Z M 14322,6709 L 14322,6709 Z"/>
      </g>
     </g>
     <g class="com.sun.star.drawing.CustomShape">
      <g id="id10">
       <path fill="rgb(0,0,0)" stroke="none" d="M 9386,5745 C 9550,5745 9675,5870 9675,6034 9675,6198 9550,6323 9386,6323 9222,6323 9097,6198 9097,6034 9097,5870 9222,5745 9386,5745 Z M 9097,5745 L 9097,5745 Z M 9676,6324 L 9676,6324 Z"/>
      </g>
     </g>
     <g class="com.sun.star.drawing.CustomShape">
      <g id="id11">
       <path fill="rgb(0,0,0)" stroke="none" d="M 11581,7035 C 11745,7035 11870,7160 11870,7324 11870,7488 11745,7613 11581,7613 11417,7613 11292,7488 11292,7324 11292,7160 11417,7035 11581,7035 Z M 11292,7035 L 11292,7035 Z M 11871,7614 L 11871,7614 Z"/>
      </g>
     </g>
     <g class="com.sun.star.drawing.CustomShape">
      <g id="id12">
       <path fill="rgb(0,0,0)" stroke="none" d="M 14033,3163 C 14197,3163 14322,3288 14322,3452 14322,3616 14197,3741 14033,3741 13869,3741 13744,3616 13744,3452 13744,3288 13869,3163 14033,3163 Z M 13744,3163 L 13744,3163 Z M 14323,3742 L 14323,3742 Z"/>
      </g>
     </g>
     <g class="com.sun.star.drawing.CustomShape">
      <g id="id13">
       <path fill="rgb(0,0,0)" stroke="none" d="M 21001,7421 C 21165,7421 21291,7546 21291,7710 21291,7874 21165,8000 21001,8000 20837,8000 20712,7874 20712,7710 20712,7546 20837,7421 21001,7421 Z M 20712,7421 L 20712,7421 Z M 21292,8001 L 21292,8001 Z"/>
      </g>
     </g>
     <g class="com.sun.star.drawing.CustomShape">
      <g id="id14">
       <path fill="rgb(0,0,0)" stroke="none" d="M 16355,7810 C 16519,7810 16645,7935 16645,8099 16645,8263 16519,8388 16355,8388 16191,8388 16066,8263 16066,8099 16066,7935 16191,7810 16355,7810 Z M 16066,7810 L 16066,7810 Z M 16646,8389 L 16646,8389 Z"/>
      </g>
     </g>
     <g class="com.sun.star.drawing.CustomShape">
      <g id="id15">
       <path fill="rgb(0,0,0)" stroke="none" d="M 14033,14520 C 14197,14520 14322,14645 14322,14809 14322,14973 14197,15099 14033,15099 13869,15099 13744,14973 13744,14809 13744,14645 13869,14520 14033,14520 Z M 13744,14520 L 13744,14520 Z M 14323,15100 L 14323,15100 Z"/>
      </g>
     </g>
     <g class="com.sun.star.drawing.CustomShape">
      <g id="id16">
       <path fill="rgb(0,0,0)" stroke="none" d="M 10417,15940 C 10581,15940 10707,16065 10707,16229 10707,16393 10581,16519 10417,16519 10253,16519 10128,16393 10128,16229 10128,16065 10253,15940 10417,15940 Z M 10128,15940 L 10128,15940 Z M 10708,16520 L 10708,16520 Z"/>
      </g>
     </g>
     <g class="com.sun.star.drawing.CustomShape">
      <g id="id17">
       <path fill="rgb(0,0,0)" stroke="none" d="M 14938,19041 C 15102,19041 15227,19166 15227,19330 15227,19494 15102,19619 14938,19619 14774,19619 14649,19494 14649,19330 14649,19166 14774,19041 14938,19041 Z M 14649,19041 L 14649,19041 Z M 15228,19620 L 15228,19620 Z"/>
      </g>
     </g>
     <g class="com.sun.star.drawing.CustomShape">
      <g id="id18">
       <path fill="rgb(0,0,0)" stroke="none" d="M 12872,15169 C 13036,15169 13161,15294 13161,15458 13161,15622 13036,15747 12872,15747 12708,15747 12583,15622 12583,15458 12583,15294 12708,15169 12872,15169 Z M 12583,15169 L 12583,15169 Z M 13162,15748 L 13162,15748 Z"/>
      </g>
     </g>
     <g class="com.sun.star.drawing.CustomShape">
      <g id="id19">
       <path fill="rgb(0,0,0)" stroke="none" d="M 9775,14265 C 9939,14265 10064,14390 10064,14554 10064,14718 9939,14843 9775,14843 9611,14843 9486,14718 9486,14554 9486,14390 9611,14265 9775,14265 Z M 9486,14265 L 9486,14265 Z M 10065,14844 L 10065,14844 Z"/>
      </g>
     </g>
     <g class="com.sun.star.drawing.CustomShape">
      <g id="id20">
       <path fill="rgb(0,0,0)" stroke="none" d="M 10420,15941 C 10584,15941 10709,16066 10709,16230 10709,16394 10584,16520 10420,16520 10256,16520 10131,16394 10131,16230 10131,16066 10256,15941 10420,15941 Z M 10131,15941 L 10131,15941 Z M 10710,16521 L 10710,16521 Z"/>
      </g>
     </g>
     <g class="com.sun.star.drawing.CustomShape">
      <g id="id21">
       <path fill="rgb(0,0,0)" stroke="none" d="M 12870,13617 C 13034,13617 13159,13742 13159,13906 13159,14070 13034,14195 12870,14195 12706,14195 12581,14070 12581,13906 12581,13742 12706,13617 12870,13617 Z M 12581,13617 L 12581,13617 Z M 13160,14196 L 13160,14196 Z"/>
      </g>
     </g>
     <g class="com.sun.star.drawing.CustomShape">
      <g id="id22">
       <path fill="rgb(0,0,0)" stroke="none" d="M 16999,11681 C 17163,11681 17289,11806 17289,11970 17289,12134 17163,12259 16999,12259 16835,12259 16710,12134 16710,11970 16710,11806 16835,11681 16999,11681 Z M 16710,11681 L 16710,11681 Z M 17290,12260 L 17290,12260 Z"/>
      </g>
     </g>
     <g class="com.sun.star.drawing.CustomShape">
      <g id="id23">
       <path fill="rgb(0,0,0)" stroke="none" d="M 21001,13102 C 21165,13102 21291,13227 21291,13391 21291,13555 21165,13680 21001,13680 20837,13680 20712,13555 20712,13391 20712,13227 20837,13102 21001,13102 Z M 20712,13102 L 20712,13102 Z M 21292,13681 L 21292,13681 Z"/>
      </g>
     </g>
     <g class="com.sun.star.drawing.CustomShape">
      <g id="id24">
       <path fill="rgb(0,0,0)" stroke="none" d="M 15969,14649 C 16133,14649 16258,14774 16258,14938 16258,15102 16133,15228 15969,15228 15805,15228 15680,15102 15680,14938 15680,14774 15805,14649 15969,14649 Z M 15680,14649 L 15680,14649 Z M 16259,15229 L 16259,15229 Z"/>
      </g>
     </g>
     <g class="com.sun.star.drawing.CustomShape">
      <g id="id25">
       <path fill="rgb(0,0,0)" stroke="none" d="M 15194,14264 C 15358,14264 15483,14389 15483,14553 15483,14717 15358,14842 15194,14842 15030,14842 14905,14717 14905,14553 14905,14389 15030,14264 15194,14264 Z M 14905,14264 L 14905,14264 Z M 15484,14843 L 15484,14843 Z"/>
      </g>
     </g>
     <g class="com.sun.star.drawing.CustomShape">
      <g id="id26">
       <path fill="rgb(0,0,0)" stroke="none" d="M 17000,14134 C 17164,14134 17290,14259 17290,14423 17290,14587 17164,14712 17000,14712 16836,14712 16711,14587 16711,14423 16711,14259 16836,14134 17000,14134 Z M 16711,14134 L 16711,14134 Z M 17291,14713 L 17291,14713 Z"/>
      </g>
     </g>
     <g class="com.sun.star.drawing.CustomShape">
      <g id="id27">
       <path fill="rgb(0,0,0)" stroke="none" d="M 15194,16456 C 15358,16456 15484,16581 15484,16745 15484,16909 15358,17035 15194,17035 15030,17035 14905,16909 14905,16745 14905,16581 15030,16456 15194,16456 Z M 14905,16456 L 14905,16456 Z M 15485,17036 L 15485,17036 Z"/>
      </g>
     </g>
     <g class="com.sun.star.drawing.CustomShape">
      <g id="id28">
       <path fill="rgb(0,0,0)" stroke="none" d="M 15454,12457 C 15618,12457 15743,12582 15743,12746 15743,12910 15618,13035 15454,13035 15290,13035 15165,12910 15165,12746 15165,12582 15290,12457 15454,12457 Z M 15165,12457 L 15165,12457 Z M 15744,13036 L 15744,13036 Z"/>
      </g>
     </g>
     <g class="com.sun.star.drawing.CustomShape">
      <g id="id29">
       <path fill="rgb(0,0,0)" stroke="none" d="M 12741,8325 C 12905,8325 13030,8450 13030,8614 13030,8778 12905,8903 12741,8903 12577,8903 12452,8778 12452,8614 12452,8450 12577,8325 12741,8325 Z M 12452,8325 L 12452,8325 Z M 13031,8904 L 13031,8904 Z"/>
      </g>
     </g>
     <g class="com.sun.star.drawing.CustomShape">
      <g id="id30">
       <path fill="rgb(0,0,0)" stroke="none" d="M 13902,8454 C 14066,8454 14191,8579 14191,8743 14191,8907 14066,9032 13902,9032 13738,9032 13613,8907 13613,8743 13613,8579 13738,8454 13902,8454 Z M 13613,8454 L 13613,8454 Z M 14192,9033 L 14192,9033 Z"/>
      </g>
     </g>
     <g class="com.sun.star.drawing.CustomShape">
      <g id="id31">
       <path fill="rgb(0,0,0)" stroke="none" d="M 16355,11163 C 16519,11163 16645,11288 16645,11452 16645,11616 16519,11742 16355,11742 16191,11742 16065,11616 16065,11452 16065,11288 16191,11163 16355,11163 Z M 16065,11163 L 16065,11163 Z M 16646,11743 L 16646,11743 Z"/>
      </g>
     </g>
     <g class="com.sun.star.drawing.LineShape">
      <g id="id32">
       <path fill="none" stroke="rgb(0,0,0)" stroke-width="51" stroke-linejoin="round" d="M 13118,5248 L 13469,5599"/>
       <path fill="rgb(0,0,0)" stroke="none" d="M 13773,5903 L 13561,5479 13349,5691 13773,5903 Z"/>
      </g>
     </g>
     <g class="com.sun.star.drawing.LineShape">
      <g id="id33">
       <path fill="none" stroke="rgb(0,0,0)" stroke-width="51" stroke-linejoin="round" d="M 12626,5412 L 13013,6962"/>
       <path fill="rgb(0,0,0)" stroke="none" d="M 13118,7379 L 13154,6906 12863,6978 13118,7379 Z"/>
      </g>
     </g>
     <g class="com.sun.star.drawing.LineShape">
      <g id="id34">
       <path fill="none" stroke="rgb(0,0,0)" stroke-width="51" stroke-linejoin="round" d="M 13609,11313 L 13689,10915"/>
       <path fill="rgb(0,0,0)" stroke="none" d="M 13773,10493 L 13538,10905 13832,10964 13773,10493 Z"/>
      </g>
     </g>
     <g class="com.sun.star.drawing.LineShape">
      <g id="id35">
       <path fill="none" stroke="rgb(0,0,0)" stroke-width="51" stroke-linejoin="round" d="M 14265,11969 L 14983,11969"/>
       <path fill="rgb(0,0,0)" stroke="none" d="M 15413,11969 L 14963,11819 14963,12119 15413,11969 Z"/>
      </g>
     </g>
     <g class="com.sun.star.drawing.LineShape">
      <g id="id36">
       <path fill="none" stroke="rgb(0,0,0)" stroke-width="51" stroke-linejoin="round" d="M 11970,17378 L 12270,16779"/>
       <path fill="rgb(0,0,0)" stroke="none" d="M 12462,16395 L 12127,16730 12395,16864 12462,16395 Z"/>
      </g>
     </g>
     <g class="com.sun.star.drawing.LineShape">
      <g id="id37">
       <path fill="none" stroke="rgb(0,0,0)" stroke-width="51" stroke-linejoin="round" d="M 12298,17870 L 13096,17300"/>
       <path fill="rgb(0,0,0)" stroke="none" d="M 13446,17050 L 12992,17190 13167,17434 13446,17050 Z"/>
      </g>
     </g>
     <g class="com.sun.star.drawing.LineShape">
      <g id="id38">
       <path fill="none" stroke="rgb(0,0,0)" stroke-width="51" stroke-linejoin="round" d="M 18363,12296 L 17804,12203"/>
       <path fill="rgb(0,0,0)" stroke="none" d="M 17380,12132 L 17799,12354 17848,12059 17380,12132 Z"/>
      </g>
     </g>
     <g class="com.sun.star.drawing.LineShape">
      <g id="id39">
       <path fill="none" stroke="rgb(0,0,0)" stroke-width="51" stroke-linejoin="round" d="M 18691,12952 L 17894,13522"/>
       <path fill="rgb(0,0,0)" stroke="none" d="M 17544,13772 L 17997,13632 17823,13388 17544,13772 Z"/>
      </g>
     </g>
     <g class="com.sun.star.drawing.LineShape">
      <g id="id40">
       <path fill="none" stroke="rgb(0,0,0)" stroke-width="51" stroke-linejoin="round" d="M 19511,12788 L 20263,13111"/>
       <path fill="rgb(0,0,0)" stroke="none" d="M 20658,13280 L 20304,12965 20185,13241 20658,13280 Z"/>
      </g>
     </g>
     <g class="com.sun.star.drawing.LineShape">
      <g id="id41">
       <path fill="none" stroke="rgb(0,0,0)" stroke-width="51" stroke-linejoin="round" d="M 11151,17378 L 10880,16927"/>
       <path fill="rgb(0,0,0)" stroke="none" d="M 10659,16558 L 10762,17021 11019,16867 10659,16558 Z"/>
      </g>
     </g>
     <g class="com.sun.star.drawing.LineShape">
      <g id="id42">
       <path fill="none" stroke="rgb(0,0,0)" stroke-width="51" stroke-linejoin="round" d="M 13118,12460 L 12982,12731"/>
       <path fill="rgb(0,0,0)" stroke="none" d="M 12790,13116 L 13125,12781 12857,12646 12790,13116 Z"/>
      </g>
     </g>
    </g>
   </g>
  </g>
 </g>
</svg>